# xmcd CD database file
#
# Track frame offsets:
#	150
#	13747
#	30420
#	48545
#	63419
#	80394
#	94138
#	110597
#	126257
#	144570
#	166701
#	189238
#	203731
#	220157
#	231033
#	249911
#	267266
#
# Disc length: 3762 seconds
#
# Revision: 0
# Processed by: cddbd v1.5.2PL0 Copyright (c) Steve Scherf et al.
# Submitted via: CDex 1.51
#
DISCID=e20eb011
DTITLE=Kenny Ball - Kenny Ball At The BBC - The Airshots
DYEAR=2000
DGENRE=Jazz
TTITLE0=Nobody's Sweetheart
TTITLE1=You Brought A New Kind Of LOve To Me
TTITLE2=That's A Plenty
TTITLE3=That's My Weakness Now
TTITLE4=High Society
TTITLE5=Nuages
TTITLE6=South Rampart Street Parade
TTITLE7=Farewell Blues
TTITLE8=Ostrich Walk
TTITLE9=Riverside Blues
TTITLE10=Original Dixieland One Step
TTITLE11=Livery Stable Blues
TTITLE12=Black And Tan Fantasy
TTITLE13=Someday You'll Be Sorry
TTITLE14=American Patrol
TTITLE15=Clarinet Marmalade
TTITLE16=There Ain't No Sweet Man
EXTD=YEAR: 2000
EXTT0=
EXTT1=
EXTT2=
EXTT3=
EXTT4=
EXTT5=
EXTT6=
EXTT7=
EXTT8=
EXTT9=
EXTT10=
EXTT11=
EXTT12=
EXTT13=
EXTT14=
EXTT15=
EXTT16=
PLAYORDER=
